# AST/ASF file generated using VICON BodyLanguage
# -----------------------------------------------
:version 1.10
:name VICON
:units
  mass 1.0
  length 0.45
  angle deg
:documentation
   .ast/.asf automatically generated from VICON data using
   VICON BodyBuilder and BodyLanguage model FoxedUp or BRILLIANT.MOD
:root
   order TX TY TZ RX RY RZ
   axis XYZ
   position 0 0 0  
   orientation 0 0 0 
:bonedata
  begin
     id 1 
     name lhipjoint
     direction 0.690799 -0.707083 0.151096 
     length 2.54797 
     axis 0 0 0  XYZ
  end
  begin
     id 2 
     name lfemur
     direction 0.34202 -0.939693 0  
     length 7.21646  
     axis 0 0 20  XYZ
    dof rx ry rz
    limits (-160.0 20.0)
           (-70.0 70.0)
           (-60.0 70.0)
  end
  begin
     id 3 
     name ltibia
     direction 0.34202 -0.939693 0   
     length 8.16759   
     axis 0 0 20   XYZ
    dof rx
    limits (-10.0 170.0)
  end
  begin
     id 4 
     name lfoot
     direction 0.0487203 -0.133858 0.989802   
     length 1.93375   
     axis -90 7.62852e-016 20   XYZ
    dof rx rz
    limits (-45.0 90.0)
           (-70.0 20.0)
  end
  begin
     id 5 
     name ltoes
     direction 1.53453e-011 -4.21783e-011 1   
     length 0.979747   
     axis -90 7.62852e-016 20   XYZ
    dof rx
    limits (-90.0 20.0)
  end
  begin
     id 6 
     name rhipjoint
     direction -0.694693 -0.703425 0.150315   
     length 2.56122  
     axis 0 0 0  XYZ 
  end
  begin
     id 7 
     name rfemur
     direction -0.34202 -0.939693 0   
     length 7.36786   
     axis 0 0 -20   XYZ
    dof rx ry rz
    limits (-160.0 20.0)
           (-70.0 70.0)
           (-70.0 60.0)
  end
  begin
     id 8 
     name rtibia
     direction -0.34202 -0.939693 0   
     length 8.07288   
     axis 0 0 -20   XYZ
    dof rx
    limits (-10.0 170.0)
 end
 begin
     id 9 
     name rfoot
     direction -0.0428397 -0.117701 0.992125   
     length 1.88295  
     axis -90 -7.62852e-016 -20   XYZ
    dof rx rz
    limits (-45.0 90.0)
           (-20.0 70.0)
  end
  begin
     id 10 
     name rtoes
     direction -1.53456e-011 -4.2187e-011 1   
     length 0.955578   
     axis -90 -7.62852e-016 -20   XYZ
    dof rx
    limits (-90.0 20.0)
  end
  begin
     id 11 
     name lowerback
     direction 0.0288145 0.999398 -0.0193241   
     length 1.92149   
     axis 0 0 0   XYZ
    dof rx ry rz
    limits (-20.0 45.0)
           (-30.0 30.0)
           (-30.0 30.0)
  end
  begin
     id 12 
     name upperback
     direction 0.0233784 0.998099 0.0570278   
     length 1.90435   
     axis 0 0 0   XYZ
    dof rx ry rz
    limits (-20.0 45.0)
           (-30.0 30.0)
           (-30.0 30.0)
  end
  begin
     id 13 
     name thorax
     direction 0.0096694 0.997833 0.0650817   
     length 1.9111   
     axis 0 0 0   XYZ
    dof rx ry rz
    limits (-20.0 45.0)
           (-30.0 30.0)
           (-30.0 30.0)
  end
  begin
     id 14 
     name lowerneck
     direction 0.00516803 0.999916 0.0118722   
     length 1.74664   
     axis 0 0 0   XYZ
    dof rx ry rz
    limits (-20.0 45.0)
           (-30.0 30.0)
           (-30.0 30.0)
  end
  begin
     id 15 
     name upperneck
     direction -0.0510851 0.996117 -0.071696   
     length 1.68498   
     axis 0 0 0   XYZ
    dof rx ry rz
    limits (-20.0 45.0)
           (-30.0 30.0)
           (-30.0 30.0)
  end
  begin
     id 16
     name head
     direction -0.019188 0.999436 -0.0275702  
     length 1.83483  
     axis 0 0 0   XYZ
    dof rx ry rz
    limits (-20.0 45.0)
           (-30.0 30.0)
           (-30.0 30.0)
  end
  begin
     id 17 
     name lclavicle
     direction 0.967006 0.248456 -0.0562957  
     length 3.39395  
     axis 0 0 0   XYZ
    dof ry rz
    limits (-20.0 10.0)
           (0.0 20.0)
  end
  begin
     id 18 
     name lhumerus
     direction 1 -4.48962e-011 -5.62711e-019   
     length 5.24318   
     axis 180 -30 -90   XYZ
    dof rx ry rz
    limits (-60.0 90.0)
           (-90.0 90.0)
           (-90.0 90.0)
  end
  begin
     id 19
     name lradius
     direction 1 -4.48966e-011 7.90625e-027   
     length 2.98999   
     axis 180 -30 -90   XYZ
    dof rx
    limits (-10.0 170.0)
  end
  begin
     id 20
     name lwrist
     direction 1 -4.48959e-011 1.61068e-026   
     length 1.49499   
     axis -9.31229e-015 90 90   XYZ
    dof ry
    limits (-180.0 0.0)
 end
  begin
     id 21 
     name lhand
     direction 1 -4.49017e-011 3.22136e-026   
     length 0.726745   
     axis -2.0555e-014 90 90   XYZ
    dof rx rz
    limits (-90.0 90.0)
           (-45.0 45.0)
  end
  begin
     id 22 
     name lfingers
     direction 1 -4.4898e-011 6.44272e-026   
     length 0.58592   
     axis -4.11101e-014 90 90   XYZ
    dof rx
    limits (0.0 90.0)
  end
  begin
     id 23
     name lthumb
     direction 0.707107 -6.34922e-011 0.707107   
     length 0.841268   
     axis -90 45 2.85299e-015   XYZ
    dof rx rz
    limits (-45.0 45.0)
           (-45.0 45.0)
  end
  begin
     id 24 
     name rclavicle
     direction -0.972232 0.230238 0.0419005   
     length 3.40416  
     axis 0 0 0   XYZ 
    dof ry rz
    limits (-10.0 20.0)
           (-20.0 0.0)
  end
  begin
     id 25 
     name rhumerus
     direction -1 -4.48976e-011 2.48487e-027  
     length 5.37045   
     axis 180 30 90   XYZ
    dof rx ry rz
    limits (-90.0 60.0)
           (-90.0 90.0)
           (-90.0 90.0)
  end
  begin
     id 26 
     name rradius
     direction -1 -4.48942e-011 7.87951e-027   
     length 2.92792   
     axis 180 30 90   XYZ
    dof rx
    limits (-10.0 170.0)
  end
  begin
     id 27 
     name rwrist
     direction -1 -4.48969e-011 1.61068e-026   
     length 1.46396   
     axis -9.31229e-015 -90 -90   XYZ
    dof ry
    limits (-180.0 0.0)
  end
  begin
     id 28
     name rhand
     direction -1 -4.49043e-011 3.22136e-026   
     length 0.784497   
     axis -2.0555e-014 -90 -90   XYZ
    dof rx rz
    limits (-90.0 90.0)
           (-45.0 45.0)
  end
  begin
     id 29
     name rfingers
     direction -1 -4.48823e-011 6.44272e-026   
     length 0.632482   
     axis -4.11101e-014 -90 -90   XYZ
    dof rx
    limits (0.0 90.0)
  end
  begin
     id 30
     name rthumb
     direction -0.707107 -6.34923e-011 0.707107   
     length 0.908121   
     axis -90 -45 -2.85299e-015   XYZ
    dof rx rz
    limits (-45.0 45.0)
           (-45.0 45.0)
  end
:hierarchy
  begin
    root lhipjoint rhipjoint lowerback
    lhipjoint lfemur
    lfemur ltibia
    ltibia lfoot
    lfoot ltoes
    rhipjoint rfemur
    rfemur rtibia
    rtibia rfoot
    rfoot rtoes
    lowerback upperback
    upperback thorax
    thorax lowerneck lclavicle rclavicle
    lowerneck upperneck
    upperneck head
    lclavicle lhumerus
    lhumerus lradius
    lradius lwrist
    lwrist lhand lthumb
    lhand lfingers
    rclavicle rhumerus
    rhumerus rradius
    rradius rwrist
    rwrist rhand rthumb
    rhand rfingers
  end

#!OML:ASF E:\Style6\Style6.ASF
:FULLY-SPECIFIED
:DEGREES
1978
root 0.208996 18.2409 0.366942 11.0573 -2.93099 -3.14739
lowerback -3.44164 -0.347047 1.94862
upperback -4.99474 -0.42354 2.87552
thorax -3.20713 -0.22452 1.86899
lowerneck -6.76065 0.456232 4.09616
upperneck 10.3242 0.961946 -7.24321
head 4.24113 0.23372 -2.84465
rclavicle 1.63376e-014 -2.66371e-014
rhumerus -39.0661 -8.85621 -76.3177
rradius 29.1393
rwrist 32.4542
rhand -5.76325 12.5517
rfingers 7.12502
rthumb 20.0599 -16.4328
lclavicle 1.63376e-014 -2.66371e-014
lhumerus -36.1419 1.86946 87.0539
lradius 20.4834
lwrist -24.1905
lhand -7.38783 18.1338
lfingers 7.12502
lthumb 18.4978 47.2743
rfemur -11.093 14.2546 20.5622
rtibia 8.16184
rfoot -2.73425 -17.2577
rtoes -18.0604
lfemur -16.4979 -17.783 -13.1593
ltibia 20.6803
lfoot -8.17948 21.9631
ltoes -11.1617
1979
root 0.208448 18.241 0.368478 10.9954 -2.9679 -3.17321
lowerback -3.38193 -0.327731 1.97762
upperback -4.96861 -0.396699 2.87205
thorax -3.21423 -0.212126 1.84951
lowerneck -6.77599 0.474234 4.08346
upperneck 10.3845 0.989731 -7.23676
head 4.26359 0.246304 -2.83953
rclavicle 1.28589e-014 2.06736e-014
rhumerus -39.1367 -9.00943 -76.2571
rradius 29.0308
rwrist 32.5543
rhand -5.60836 12.5082
rfingers 7.12502
rthumb 20.2088 -16.4606
lclavicle 1.28589e-014 2.06736e-014
lhumerus -36.1941 2.07707 86.9926
lradius 20.4287
lwrist -24.1279
lhand -7.26859 18.3002
lfingers 7.12502
lthumb 18.6125 47.4298
rfemur -10.9485 14.2974 20.6051
rtibia 8.03379
rfoot -2.68037 -17.2571
rtoes -17.9299
lfemur -16.4141 -17.7862 -13.1554
ltibia 20.6907
lfoot -8.10122 22.0035
ltoes -11.5385
1980
root 0.207571 18.2417 0.36886 11.0103 -2.94315 -3.20577
lowerback -3.38886 -0.329581 2.0122
upperback -4.97379 -0.399461 2.87909
thorax -3.21597 -0.214556 1.83741
lowerneck -6.70324 0.480051 4.07696
upperneck 10.3558 0.999568 -7.24426
head 4.24322 0.252159 -2.83984
rclavicle -7.24322e-015 -9.93923e-015
rhumerus -39.2296 -9.08209 -76.2276
rradius 28.9193
rwrist 32.4961
rhand -5.49037 12.4966
rfingers 7.12502
rthumb 20.3222 -16.4602
lclavicle -7.24322e-015 -9.93923e-015
lhumerus -36.1966 2.30762 86.9195
lradius 20.2433
lwrist -24.1378
lhand -7.10233 18.6178
lfingers 7.12502
lthumb 18.7724 47.7319
rfemur -10.8858 14.2815 20.6462
rtibia 7.89796
rfoot -2.67749 -17.2776
rtoes -17.5896
lfemur -16.4482 -17.8134 -13.1061
ltibia 20.7094
lfoot -7.99277 22.0143
ltoes -11.96
1981
root 0.206288 18.2435 0.369702 11.0467 -2.95446 -3.21746
lowerback -3.41502 -0.30754 2.02538
upperback -4.97804 -0.371467 2.86009
thorax -3.20636 -0.201332 1.81037
lowerneck -6.65756 0.464266 4.12151
upperneck 10.3079 0.975352 -7.27431
head 4.21977 0.24173 -2.85741
rclavicle -1.86982e-015 -8.74653e-015
rhumerus -39.3286 -9.13454 -76.2416
rradius 28.8374
rwrist 32.3702
rhand -5.51321 12.5271
rfingers 7.12502
rthumb 20.3003 -16.432
lclavicle -1.86982e-015 -8.74653e-015
lhumerus -36.1597 2.51312 86.828
lradius 20.0072
lwrist -24.2139
lhand -7.133 18.8418
lfingers 7.12502
lthumb 18.7429 47.9588
rfemur -10.8692 14.2963 20.6491
rtibia 7.79668
rfoot -2.66983 -17.264
rtoes -17.6313
lfemur -16.4952 -17.7553 -13.0921
ltibia 20.7325
lfoot -7.9907 21.9815
ltoes -11.8531
1982
root 0.204362 18.2444 0.370706 11.0656 -2.98324 -3.20359
lowerback -3.45815 -0.292646 2.01039
upperback -4.95687 -0.354339 2.8385
thorax -3.16031 -0.192525 1.79595
lowerneck -6.69702 0.463362 4.1675
upperneck 10.3231 0.97376 -7.31891
head 4.23123 0.239397 -2.87917
rclavicle -7.29912e-015 2.42517e-014
rhumerus -39.3489 -9.20481 -76.2711
rradius 28.7035
rwrist 32.3596
rhand -5.56915 12.458
rfingers 7.12502
rthumb 20.2465 -16.5068
lclavicle -7.29912e-015 2.42517e-014
lhumerus -36.1548 2.76787 86.7151
lradius 19.9029
lwrist -24.3164
lhand -7.19444 18.4828
lfingers 7.12502
lthumb 18.6838 47.6055
rfemur -10.8696 14.3232 20.6277
rtibia 7.75842
rfoot -2.72363 -17.2426
rtoes -17.577
lfemur -16.4982 -17.6823 -13.12
ltibia 20.7394
lfoot -7.93204 21.961
ltoes -11.8488
1983
root 0.202842 18.2436 0.370568 11.0696 -2.99921 -3.20063
lowerback -3.48511 -0.289204 1.99938
upperback -4.92501 -0.351907 2.83285
thorax -3.11195 -0.19089 1.79571
lowerneck -6.75608 0.479289 4.22064
upperneck 10.3504 0.996459 -7.38351
head 4.25123 0.247691 -2.9071
rclavicle 1.084e-014 -1.27222e-014
rhumerus -39.3568 -9.32158 -76.2592
rradius 28.5803
rwrist 32.4643
rhand -5.57809 12.3622
rfingers 7.12502
rthumb 20.2379 -16.6035
lclavicle 1.084e-014 -1.27222e-014
lhumerus -36.1438 2.96298 86.6391
lradius 19.8713
lwrist -24.3606
lhand -7.0561 17.8394
lfingers 7.12502
lthumb 18.8169 46.9493
rfemur -10.8916 14.3393 20.6228
rtibia 7.78126
rfoot -2.77287 -17.2337
rtoes -17.4824
lfemur -16.4894 -17.6533 -13.1244
ltibia 20.7293
lfoot -7.93093 21.9831
ltoes -12.0411
1984
root 0.201949 18.2419 0.370603 11.1047 -3.00736 -3.17474
lowerback -3.52017 -0.279987 1.97964
upperback -4.93422 -0.3408 2.81471
thorax -3.10192 -0.184997 1.78794
lowerneck -6.71135 0.474798 4.22851
upperneck 10.3213 0.991854 -7.40731
head 4.2347 0.245608 -2.91572
rclavicle -1.10822e-014 3.85642e-014
rhumerus -39.4262 -9.5444 -76.1771
rradius 28.4728
rwrist 32.7307
rhand -5.55295 12.2904
rfingers 7.12502
rthumb 20.2621 -16.6727
lclavicle -1.10822e-014 3.85642e-014
lhumerus -36.1573 2.97767 86.6658
lradius 19.8294
lwrist -24.2225
lhand -6.98204 17.6281
lfingers 7.12502
lthumb 18.8881 46.7311
rfemur -10.9509 14.3433 20.587
rtibia 7.8346
rfoot -2.80404 -17.2272
rtoes -17.3794
lfemur -16.5178 -17.7149 -13.1217
ltibia 20.7043
lfoot -8.12677 21.9862
ltoes -11.2353
1985
root 0.20199 18.2418 0.370851 11.0939 -2.97728 -3.17199
lowerback -3.52216 -0.269352 1.99923
upperback -4.91858 -0.327654 2.80227
thorax -3.08493 -0.179214 1.76401
lowerneck -6.72023 0.462912 4.2358
upperneck 10.3265 0.977946 -7.43362
head 4.23701 0.237395 -2.92594
rclavicle -7.39852e-015 6.36111e-015
rhumerus -39.449 -9.78694 -76.0734
rradius 28.2942
rwrist 33.0694
rhand -5.61412 12.3674
rfingers 7.12502
rthumb 20.2033 -16.602
lclavicle -7.39852e-015 6.36111e-015
lhumerus -36.1394 3.03927 86.6881
lradius 19.7595
lwrist -24.2236
lhand -7.06423 17.6423
lfingers 7.12502
lthumb 18.809 46.7529
rfemur -10.9342 14.3145 20.5969
rtibia 7.85138
rfoot -2.72422 -17.2135
rtoes -17.8373
lfemur -16.5101 -17.7059 -13.1197
ltibia 20.695
lfoot -8.11144 21.9216
ltoes -11.4198
1986
root 0.201911 18.242 0.371802 11.0797 -2.92644 -3.1544
lowerback -3.53421 -0.281184 1.99489
upperback -4.89042 -0.344724 2.80469
thorax -3.04854 -0.187418 1.7684
lowerneck -6.72869 0.461739 4.18205
upperneck 10.2965 0.977784 -7.40863
head 4.2291 0.236789 -2.90903
rclavicle -5.09386e-016 9.93923e-015
rhumerus -39.4287 -9.84751 -76.0488
rradius 28.0935
rwrist 33.1922
rhand -5.71812 12.4309
rfingers 7.12502
rthumb 20.1033 -16.549
lclavicle -5.09386e-016 9.93923e-015
lhumerus -36.1273 3.16229 86.6945
lradius 19.7207
lwrist -24.3523
lhand -7.21571 17.5736
lfingers 7.12502
lthumb 18.6633 46.6982
rfemur -10.9144 14.2612 20.5905
rtibia 7.85583
rfoot -2.86702 -17.1937
rtoes -17.0469
lfemur -16.5012 -17.7546 -13.1299
ltibia 20.6853
lfoot -8.02665 21.9533
ltoes -11.855
1987
root 0.200353 18.2421 0.371619 11.0944 -2.90157 -3.20631
lowerback -3.53641 -0.284511 2.01731
upperback -4.8918 -0.348814 2.83617
thorax -3.04878 -0.189609 1.78833
lowerneck -6.64547 0.465743 4.15646
upperneck 10.2049 0.983992 -7.41385
head 4.1876 0.241226 -2.90509
rclavicle -2.14253e-014 1.98785e-014
rhumerus -39.4357 -9.89106 -76.0318
rradius 27.9008
rwrist 33.2447
rhand -5.80027 12.4325
rfingers 7.12502
rthumb 20.0244 -16.5557
lclavicle -2.14253e-014 1.98785e-014
lhumerus -36.1295 3.31756 86.6817
lradius 19.647
lwrist -24.5758
lhand -7.38762 17.6017
lfingers 7.12502
lthumb 18.498 46.7422
rfemur -10.9133 14.2505 20.6583
rtibia 7.83141
rfoot -2.81996 -17.1879
rtoes -17.2296
lfemur -16.5297 -17.7237 -13.06
ltibia 20.687
lfoot -8.00351 21.9205
ltoes -11.7365
1988
root 0.199342 18.2418 0.372347 11.1289 -2.92171 -3.20558
lowerback -3.57605 -0.269318 2.00195
upperback -4.89571 -0.329652 2.84091
thorax -3.03078 -0.179375 1.80175
lowerneck -6.63516 0.462925 4.14615
upperneck 10.1858 0.982433 -7.4306
head 4.18001 0.239587 -2.90848
rclavicle 2.04997e-016 -8.74653e-015
rhumerus -39.4577 -9.96732 -76.0009
rradius 27.77
rwrist 33.3106
rhand -5.80587 12.5409
rfingers 7.12502
rthumb 20.019 -16.4479
lclavicle 2.04997e-016 -8.74653e-015
lhumerus -36.1106 3.49198 86.6395
lradius 19.5592
lwrist -24.9066
lhand -7.26531 17.6594
lfingers 7.12502
lthumb 18.6156 46.7887
rfemur -10.9481 14.2714 20.6467
rtibia 7.8206
rfoot -2.77168 -17.1843
rtoes -17.7279
lfemur -16.5696 -17.7186 -13.0468
ltibia 20.6851
lfoot -8.06443 21.9145
ltoes -11.3905
1989
root 0.199006 18.2426 0.372254 11.1563 -2.94988 -3.14745
lowerback -3.59842 -0.25443 1.95779
upperback -4.90726 -0.310172 2.81594
thorax -3.03029 -0.168643 1.80082
lowerneck -6.62513 0.448087 4.13052
upperneck 10.1938 0.964089 -7.4246
head 4.17955 0.230375 -2.90509
rclavicle 4.36084e-015 -4.49253e-014
rhumerus -39.5215 -10.1049 -75.9379
rradius 27.6684
rwrist 33.4972
rhand -5.79576 12.699
rfingers 7.12502
rthumb 20.0287 -16.2887
lclavicle 4.36084e-015 -4.49253e-014
lhumerus -36.1061 3.46854 86.6799
lradius 19.5416
lwrist -25.0141
lhand -7.1364 17.6557
lfingers 7.12502
lthumb 18.7396 46.773
rfemur -10.9894 14.2863 20.5652
rtibia 7.8141
rfoot -2.73818 -17.1716
rtoes -17.9233
lfemur -16.6093 -17.6958 -13.1079
ltibia 20.6889
lfoot -7.96873 21.9104
ltoes -11.6804
